<?xml version="1.0" encoding="utf-8"?>
<!-- Generator: Adobe Illustrator 16.0.0, SVG Export Plug-In . SVG Version: 6.00 Build 0)  -->
<!DOCTYPE svg PUBLIC "-//W3C//DTD SVG 1.1//EN" "http://www.w3.org/Graphics/SVG/1.1/DTD/svg11.dtd">
<svg version="1.1" xmlns="http://www.w3.org/2000/svg" xmlns:xlink="http://www.w3.org/1999/xlink" x="0px" y="0px" width="481px"
	 height="454.609px" viewBox="0 0 481 454.609" enable-background="new 0 0 481 454.609" xml:space="preserve">
<g id="Livello_2" display="none">
	
		<ellipse display="inline" fill="none" stroke="#000000" stroke-width="0.9231" stroke-miterlimit="10" cx="239.396" cy="226" rx="239.879" ry="225.603"/>
</g>
<g id="Livello_1">
	<path fill="#939393" d="M402.347,300.463c-3.343-5.628-7.56-10.385-12.408-14.77c-2.699-2.442-6.295-4.057-9.618-5.471
		c-1.026-0.435-2.105-0.718-3.188-0.887c-4.647-1.472-9.367-2.779-14.121-3.784c-0.524-0.11-1.046-0.198-1.568-0.292
		c-11.553-8.499-24.664-15.199-37.844-20.544c-15.729-6.381-31.297-9.32-48.263-9.244c-9.25,0.041-18.483,1.292-27.428,3.633
		c-7.728,2.021-14.551,4.513-19.686,9.811c-1.549,0.626-2.944,1.71-4.226,2.733c-3.328,2.66-6.202,6.051-8.427,9.665
		c-5.3,8.611-9.155,18.089-12.134,27.73c-6.107,19.776-10.267,39.627-9.901,60.411c0.429,24.36,6.644,52.842,22.22,72.249
		c10.822,13.483,27.214,18.756,44.053,17.222c15.089-1.376,29.686-7.263,43.319-15.023c1.612-0.17,3.249-0.389,4.937-0.683
		c7.855-1.366,15.257-4.203,22.796-6.699c10.076-3.338,20.601-5.374,30.81-8.878c10.37-3.563,19.901-8.799,27.549-16.714
		c2.607-2.699,4.668-6.015,5.96-9.507c3.409-3.859,5.989-8.336,8.383-12.959c6.291-12.157,9.052-25.94,9.083-39.546
		C412.675,325.375,409.271,312.117,402.347,300.463z M299.607,412.521c0.598-0.631,1.187-1.265,1.763-1.907
		c0.178,0.158,0.356,0.317,0.539,0.468C301.136,411.572,300.368,412.051,299.607,412.521z"/>
	<path fill="#939393" d="M133.708,282.073c-6.831-0.844-13.283,0.452-19.471,2.842c-18.444,2.324-36.607,12.69-47.083,27.946
		c-0.018,0.023-0.038,0.046-0.057,0.07c-5.815,7.409-10.115,16.126-12.501,25.22c-4.311,16.422-0.289,35.727,14.364,45.627
		c14.051,9.493,32.31,11.612,48.862,10.74c8.088-0.425,16.333-2.037,23.905-4.929c3.479-1.33,7.186-3.084,10.075-5.443
		c0.982-0.804,1.894-1.701,2.658-2.701c2.074-0.643,4.07-1.495,5.904-2.437c11.854-6.092,16.948-17.546,16.227-30.521
		c-0.668-11.999-6.318-23.349-12.226-33.54c-1.237-2.134-2.718-4.244-4.243-6.243C156.194,295.544,148.706,283.921,133.708,282.073z
		"/>
	<path fill="#939393" d="M329.166,20.847c-17.993-9.002-37.732-11.799-57.396-10.181c-11.171-0.19-22.345,0.173-33.507-1.125
		c-16.579-1.928-32.622-5.131-49.372-3.072c-9.98,1.227-19.442,4.969-27.32,10.897c-2.471,0.526-4.926,1.283-7.35,2.334
		c-11.855,5.139-19.084,17.788-18.127,30.482c0.727,9.639,6.546,17.741,12.533,24.93c5.932,7.121,11.539,14.482,17.084,21.91
		c6.191,8.292,12.219,16.708,18.146,25.189c2.631,3.763,5.227,7.55,7.786,11.361c1.14,1.698,2.263,3.406,3.374,5.122
		c0.082,0.126,0.447,0.706,0.703,1.11c0.271,0.441,0.541,0.882,0.807,1.327c1.429,2.392,3.477,4.247,5.847,5.158
		c7.75,8.368,16.539,15.605,25.856,21.251c16.963,10.28,37.222,15.474,56.842,10.835c17.318-4.094,33.344-14.832,46.259-26.764
		c23.599-21.802,45.226-57.482,34.946-90.712C360.456,42.08,346.399,29.468,329.166,20.847z M271.893,160.314
		c-0.638,0.049-1.413,0.058-2.273,0.034c0.085-0.372,0.157-0.748,0.216-1.128c1.031,0.394,2.069,0.73,3.106,0.984
		C272.591,160.238,272.246,160.287,271.893,160.314z"/>
	<path fill="#DDDDDD" d="M401.431,329.82c-1.662,4.23-2.662,8.729-4.838,12.712c-1.838,1.133-2.709,3.111-3.903,4.958
		c-0.253,0.393-0.49,0.791-0.733,1.186c-2.632,2.906-5.462,5.662-7.96,8.688c-3.519,4.261-7.741,8.128-12.227,11.345
		c-2.649,1.899-6.604,3.529-9.134,6.046c-12.145,3.29-24.146,7.409-36.393,10.137c-10.438,2.324-21.105,1.679-31.593,1.967
		c-1.408-0.631-2.976-1.006-4.61-1.082c-12.307-0.567-23.825-0.953-35.813-4.271c-2.973-0.823-3.096-0.892-6.189-2.327
		c-1.2-0.557-2.355-1.203-3.501-1.864c-0.423-0.249-0.834-0.515-1.245-0.777c-0.023-0.018-0.053-0.039-0.082-0.063
		c3.157,1.129,6.559,1.888,10.154,2.222c3.627,0.339,7.261,0.397,10.882,0.228c9.276,1.102,18.592,1.6,27.923,0.921
		c20.373-1.486,40.871-5.443,59.71-13.531c17.537-7.53,36.752-21.539,43.17-40.306c1.214-3.556,1.295-7.017,0.545-10.267
		c1.782-7.295,0.908-15.072-3.702-21.367c-7.495-10.229-20.009-12.634-31.633-15.136c-38.456-8.279-75.109-45.233-116.531-24.222
		c-14.348,7.276-25.465,22.255-31.819,36.714c-3.183,7.241-4.412,14.366-5.833,22.03c-0.31,1.67-0.556,3.344-0.756,5.02
		c-0.411,1.103-0.828,2.203-1.205,3.322c-6.592,19.576-4.644,40.237,3.894,58.823c7.063,15.382,18.641,27.904,35.955,30.883
		c11.941,2.055,24.19,0.006,36.065-2.82c3.478-0.343,7.082-1.376,10.063-1.894c6.823-1.188,13.709-2.242,20.558-3.454
		c13.332-2.361,26.668-4.984,39.566-9.173c12.508-4.06,23.271-10.077,32.939-19.003c0.34-0.313,0.665-0.644,0.997-0.968
		c1.66-0.86,3.319-1.713,4.977-2.546c1.039-0.521,0.409-2.208-0.679-2.119c-0.022,0.002-0.046,0.006-0.068,0.008
		c2.51-3.118,4.703-6.505,6.556-9.995c2.013-3.793,5.38-9.955,4.812-14.773c1.329-4.925,3.409-9.671,3.413-14.868
		C403.161,329.322,401.771,328.954,401.431,329.82z"/>
	<path fill="#DDDDDD" d="M256.607,21.488c-10.739,1.011-21.404,1.848-32.175,0.737c-8.644-0.892-17.143-3.597-25.922-4.708
		c-9.2-1.166-18.438-0.578-27.169,2.634c-3.197,1.176-6.308,2.972-9.037,5.22c-1.033-0.238-2.096-0.25-3.112,0.064
		c-5.27,1.632-9.047,3.687-12.28,8.325c-2.876,4.126-3.157,10.094-1.978,14.817c2.197,8.801,8.421,16.045,14.932,22.073
		c7.377,6.829,15.778,12.228,22.681,19.582c9.721,10.356,18.06,21.868,29.242,30.79c18.366,14.653,42.468,10.493,63.046,3.483
		c10.885-3.708,21.187-8.969,30.851-15.168c8.126-5.212,16.439-11.441,21.858-19.573c11.715-17.578,7.199-43.025-7.679-57.296
		C302.851,16.144,278.145,19.458,256.607,21.488z M277.426,40.067c-0.329-0.104-0.669-0.199-1.005-0.297
		c1.042-0.028,2.085-0.049,3.129-0.058C278.842,39.824,278.134,39.942,277.426,40.067z"/>
	<path fill="#DDDDDD" d="M115.007,291.93c-11.272,1.178-23.342,5.098-32.148,12.429c-1.564,1.302-2.875,2.686-3.996,4.147
		c-13.796,8.552-20.524,34.339-13.966,47.616c9.28,18.79,32.438,11.458,46.683,3.564c7.309-4.049,13.982-9.127,19.623-15.312
		c6.017-6.596,9.797-16.131,12.068-24.629c0.497-1.859,0.829-3.713,0.989-5.527c1.928-4.583,1.292-10.278-1.322-14.343
		C137.279,291.079,124.158,290.974,115.007,291.93z"/>
	<path fill="#DDDDDD" d="M154.285,334.897c-2.15,1.211-4.221,4.086-5.491,6.151c-1.743,2.836-4.021,5.549-6.123,8.132
		c-4.078,5.019-8.877,9.784-13.974,13.719c-2.729,2.106-5.46,4.23-8.223,6.295c-2.543,1.901-4.965,4.542-7.785,5.955
		c-6.173,3.097-13.362,2.837-20.093,3.27c-0.823,0.053-1.314,1.334-0.531,1.807c3.072,1.854,5.378,3.108,9.118,3.56
		c4.057,0.49,8.34,0.571,12.41,0.672c3.816,0.094,7.65,0.808,11.398,0.011c5.005-1.065,9.551-2.603,13.917-5.325
		c7.943-4.953,13.812-11.556,18.209-19.755c3.296-6.146,6.963-17.361,2.405-23.665C158.221,333.92,156.061,333.898,154.285,334.897z
		"/>
	<path fill="#383838" d="M354.474,66.571c-0.793-3.503-2.113-6.713-3.98-9.35c-0.178-0.253-0.589,0.011-0.582,0.335
		c0.135,5.224,0.271,10.011-0.72,15.428c-0.998,5.456-2.854,10.536-5.118,15.804c-2.153,5.006-4.843,9.613-8.078,14.066
		c-1.938,2.669-5.152,5.494-7.437,8.5c-4.025,2.181-7.186,5.323-10.996,8.69c-4.109,3.631-8.371,7.109-12.767,10.256
		c-8.393,6.01-17.434,11.278-26.62,14.78c-4.451,1.697-8.962,2.92-13.465,3.792c-4.673,0.904-9.124,3.412-13.771,3.485
		c-4.789,0.075-9.844-0.267-14.327-1.292c-1.814-0.415-3.467-1.208-5.088-2.061c-0.095-0.474-0.378-0.871-0.896-1.024
		c-5.123-1.524-9.599-3.889-13.68-7.209c-4.674-3.801-9.683-8.276-12.428-14.048c-0.131-0.274-0.553-0.042-0.469,0.269
		c1.78,6.56,3.918,13.059,8.822,17.356c2.198,1.926,4.585,3.611,7.187,4.88c0.014,0.24,0.06,0.471,0.152,0.683
		c1.565,3.551,4.965,5.217,8.107,6.978c3.161,1.772,6.31,3.57,9.453,5.375c3.048,1.75,6.987,2.372,10.54,2.942
		c3.417,0.548,6.581,1.65,10.028,2.11c7.663,1.022,16.619-1.982,24.471-5.064c8.075-3.172,15.85-7.317,23.398-12.27
		c7.764-5.096,15.224-10.967,22.32-17.254c2.819-2.499,5.553-4.87,7.704-7.804c4.615-3.768,8.843-9.566,11.292-13.326
		c3.736-5.735,8.288-14.492,9.109-21.89c0.452-1,0.871-2.011,1.219-3.044c2.135-6.345,2.664-17.015-2.91-19.971
		C354.792,66.615,354.633,66.58,354.474,66.571z"/>
	<path fill="#383838" d="M378.631,394.697c-6.092,3.905-11.185,8.83-18.021,11.507c-6.835,2.674-14.124,3.783-21.406,4.863
		c-3.425,0.509-6.833,0.441-10.31,0.479c-3.829,0.043-7.752,1.194-11.459,1.913c-3.518,0.682-6.948,2.174-10.337,3.263
		c-3.741,1.203-7.518,1.986-11.197,3.401c-14.206,5.46-28.574,8.076-44.203,4.999c-6.426-1.267-12.813-2.665-19.08-4.961
		c-7.608-2.785-12.382-8.489-18.206-14.12c-0.922-0.894-2.362-0.118-1.771,1.199c2.831,6.326,8.833,11.351,13.834,15.734
		c5.792,5.076,12.292,8.966,19.213,11.596c15.654,5.954,32.456,3.159,47-2.002c15.727-5.581,29.944-17.188,47.07-18.811
		c14.185-1.345,33.654-1.635,41.633-15.677C382.346,396.404,380.448,393.532,378.631,394.697z"/>
	<path fill="#383838" d="M85.751,376.09c-1.807-0.613-2.416-0.326-4.339,0.074c-2.491,0.518-5.081,0.262-7.491-0.493
		c-4.837-1.513-7.862-5.517-11.056-9.156c-1.057-1.204-3.242-0.249-2.589,1.396c2.004,5.055,6.131,8.871,10.967,11.241
		c3.846,1.885,12.224,3.347,15.104-0.656C86.893,377.737,86.754,376.431,85.751,376.09z"/>
	<path fill="#383838" d="M151.329,303.117c0.375,3.562,2.824,8.312,4.642,12.211c2.182,4.68,4.51,9.319,6.759,13.988
		c2.058,4.271,3.914,8.522,5.208,12.732c1.604,5.218,1.382,9.374,2.324,14.221c0.166,0.845,0.961,1.615,1.294,1.188
		c3.318-4.261,0.003-15.36-3.632-24.09c-2.063-4.954-4.653-9.971-7.224-14.854c-2.55-4.845-4.379-10.456-7.314-15.074
		C152.504,302.051,151.187,301.779,151.329,303.117z"/>
	<path fill="#939393" d="M189.435,165.164c-3.583-9.38-9.401-17.235-16.718-23.169c-5.323-5.236-11.895-9.409-18.88-12.683
		c-6.715-4.422-14.223-7.942-21.95-10.682c-0.043-0.017-0.083-0.038-0.127-0.055c-2.889-1.097-5.779-2.003-8.681-2.716
		c-7.281-2.017-14.563-3.396-21.377-4.217c-30.359-3.655-69.042,5.184-79.208,37.772c-1.173,1.621-2.231,3.322-3.228,5.062
		c-5.888,8.111-10.535,17.135-14.08,26.486s-6.121,20.085-4.862,30.121c0.483,3.855,1.523,7.656,3.334,11.105
		c-0.062,0.867,0.067,1.799,0.461,2.789c4.192,10.508,9.935,20.023,17.798,28.213c7.36,7.666,17.832,12.592,27.791,15.896
		c20.23,6.711,43.011,4.869,62.967-1.828c21.385-7.178,40.83-20.717,56.323-36.979C185.189,213.288,198.499,188.895,189.435,165.164
		z M32.168,224.287c-0.414-0.725-0.654-1.207-0.839-1.68c0.533,0.902,1.091,1.789,1.678,2.656c0.082,0.199,0.167,0.396,0.252,0.594
		C32.854,225.347,32.476,224.826,32.168,224.287z M104.454,230.46c0.445-0.418,0.878-0.852,1.313-1.281
		c0.219,0.174,0.432,0.352,0.656,0.521c0.284,0.215,0.576,0.408,0.865,0.611C106.341,230.376,105.397,230.425,104.454,230.46z"/>
	<path fill="#DDDDDD" d="M160.13,152.69c-9.851-13.485-24.849-21.939-40.191-27.773c-15.288-5.813-32.325-8.354-48.502-5.413
		c-5.382,0.979-10.414,3.035-14.866,5.922c-0.278-0.05-0.56-0.092-0.844-0.124c-13.99-1.573-24.271,12.191-28.259,23.933
		c-4.414,12.994,0.812,26.009,9.437,35.783c15.236,17.264,40.319,26.619,62.586,29.494c22.751,2.938,46.649-2.417,61.072-21.422
		C169.839,180.867,169.015,164.854,160.13,152.69z M116.736,194.744c4.389-0.524,8.479-1.746,12.061-3.721
		c0.922,0.266,1.846,0.513,2.771,0.729c-4.904,2.207-10.214,3.376-15.682,3.759C116.173,195.26,116.458,195.005,116.736,194.744z"/>
	<path fill="#DDDDDD" d="M143.606,221.641c-2.909-0.292-5.165,1.458-8.048,1.461c-2.973,0.004-6.068,1.026-8.946,1.663
		c-5.875,1.297-11.19,1.837-17.159,1.23c-12.535-1.276-24.996-2.968-36.909-7.268c-10.483-3.783-19.385-10.98-27.65-18.235
		c-7.856-6.896-17.599-19.318-29.547-15.317c-1.631,0.546-2.496,1.776-2.625,3.107c-0.331,0.376-0.635,0.795-0.876,1.298
		c-0.449,0.935-0.833,1.875-1.186,2.815c-0.912,0.928-1.616,2.061-1.973,3.341c-0.725,2.596-0.677,5.158-0.114,7.649
		c-0.24,15.669,10.587,30.638,23.868,38.91c8.066,5.024,17.517,8.067,26.812,9.782c9.877,1.822,22.597,3.784,31.37-1.641
		c5.721-0.847,11.332-2.432,15.73-3.639c6.133-1.683,12.191-3.806,18.033-6.314c4.464-1.918,10.514-4.931,13.674-9.081
		c2.114-1.126,4.372-2.564,6.471-2.934C148.682,227.74,147.212,222.003,143.606,221.641z"/>
	<path fill="#383838" d="M177.616,174.637c-0.997-1.409-2.984-1.19-3.57,0.467c-2.137,6.05-2.322,12.334-5.486,18.109
		c-1.424,2.6-3.458,5.27-5.893,6.987c-0.212,0.029-0.45,0.061-0.72,0.098c-1.186,0.333-2.216,0.933-3.089,1.8
		c-1.209,1.544-2.067,2.879-2.777,4.717c-1.495,3.869,2.236,7.247,5.73,7.522c1.905,0.15,3.86-0.264,5.531-1.243
		c1.052-0.623,1.889-1.459,2.512-2.512c1.265-2.16,1.103-2.09,0.729-1.627c0.1-0.141,0.208-0.294,0.336-0.475
		c2.323-3.292,4.16-6.655,5.719-10.369C179.449,191.417,182.221,181.144,177.616,174.637z"/>
	<path fill="#383838" d="M155.257,225.871c-5.566,4.471-10.71,9.466-16.581,13.564c-7.278,5.083-15.447,8.721-23.647,12.023
		c-15.536,6.255-32.006,9.213-48.544,11.298c-1.648,0.209-1.414,2.531,0.088,2.787c16.962,2.887,35.32-2.341,51.087-8.285
		c8.354-3.149,16.32-7.448,23.685-12.481c6.606-4.513,13.074-9.896,15.499-17.75C157.135,226.085,156.09,225.202,155.257,225.871z"
		/>
	<path fill="#939393" d="M463.571,158.021c-11.423-14.843-29.464-24.021-50.16-25.645c-18.541-1.455-36.846,5.263-47.966,17.897
		c-1.149,1.306-2.169,2.685-3.07,4.12c-4.688,4.967-8.305,10.803-10.655,16.855c-7.104,18.283,0.449,36.215,15.644,49.646
		c15.549,13.745,39.509,23.688,62.259,22.019c22.462-1.648,40.654-15.49,45.875-34.035
		C480.332,191.705,474.78,172.588,463.571,158.021z"/>
	<path fill="#DDDDDD" d="M449.27,157.277c-11.476-10.56-29.098-15.726-45.065-13.759c-10.677-1.297-20.873,0.464-29.521,7.469
		c-7.958,6.446-11.104,15.974-9.497,25.91c1.817,11.237,12.435,19.656,21.919,24.429c10.247,5.156,22.764,6.518,34.07,5.747
		c12.83-0.876,25.628-5.234,33.591-15.836C463.277,179.903,458.959,166.192,449.27,157.277z"/>
	<path fill="#383838" d="M466.354,202.894c-0.22-2.435-2.427-3.706-4.645-2.665c-3.246,1.524-6.137,4.495-9.336,6.365
		c-3.435,2.009-6.69,4.217-10.253,6.048c-6.841,3.515-14.911,4.97-22.53,5.16c-8.109,0.202-16.905-0.417-24.58-3.075
		c-3.737-1.294-7.35-3.065-10.787-5.011c-3.211-1.817-6.523-4.791-10.314-5.046c-1.234-0.083-2.265,1.093-2.266,2.266
		c-0.005,7.968,12.051,14.37,18.17,17.222c9.609,4.479,19.134,7.469,29.777,7.785c10.455,0.311,20.734-1.724,30.141-6.28
		c4.369-2.117,9.16-5.727,11.869-9.841C463.898,212.33,466.738,207.157,466.354,202.894z"/>
</g>
</svg>
