<?xml version="1.0" encoding="utf-8"?>
<!-- Generator: Adobe Illustrator 16.0.0, SVG Export Plug-In . SVG Version: 6.00 Build 0)  -->
<!DOCTYPE svg PUBLIC "-//W3C//DTD SVG 1.1//EN" "http://www.w3.org/Graphics/SVG/1.1/DTD/svg11.dtd">
<svg version="1.1" xmlns="http://www.w3.org/2000/svg" xmlns:xlink="http://www.w3.org/1999/xlink" x="0px" y="0px"
	 width="453.536px" height="465.656px" viewBox="0 0 453.536 465.656" enable-background="new 0 0 453.536 465.656"
	 xml:space="preserve">
<g id="Livello_2">
</g>
<g id="Livello_1">
	<path fill="#939393" d="M426.827,259.352c-2.65-25.782-11.98-51.956-23.68-74.975s-25.405-45.076-43.112-63.986
		c-13.39-14.301-29.986-25.322-47.157-34.573c-16.786-9.042-35.034-16.754-53.87-20.158c-5.324-0.962-10.844-1.552-16.32-1.462
		c-3.463-2.794-7.554-4.405-12.37-4.482c-6.815-0.109-13.441,2.603-19.78,4.745c-14.229,4.809-28.062,10.479-41.702,16.765
		c-27.049,12.465-52.555,27.668-77.668,43.61c-20.734,13.161-39.571,29.521-52.067,50.906
		c-11.561,19.784-18.422,46.131-13.222,68.796c4.711,20.534,20.407,37.645,35.355,51.573c15.421,14.369,32.314,27.702,48.803,40.828
		c23.504,18.71,50.277,32.781,78.534,42.801c26.146,9.271,54.154,16.262,82.083,14.569c25.494-1.544,49.368-11.087,71.636-23.047
		c21.93-11.777,42.956-25.716,60.09-43.946c8.51-9.056,16.015-19.632,20.443-31.298
		C427.305,284.212,428.111,271.847,426.827,259.352z M347.338,227.248c0.024-0.064,0.049-0.125,0.071-0.184
		c0.611,1.225,1.199,2.489,1.754,3.756C348.583,229.615,347.969,228.427,347.338,227.248z"/>
	<path fill="#DDDDDD" d="M390.129,219.885c-4.241-21.399-16.285-42.077-30.162-59.68c-14.655-18.588-32.87-34.767-53.051-48.144
		c-18.861-12.503-39.776-23.291-61.425-30.784c-8.688-3.006-18.418-4.841-27.629-4.453c-1.377-0.676-3.063-0.955-4.966-0.585
		C188.362,81,167.713,96.46,146.604,107.826c-10.489,5.647-20.752,10.64-30.083,17.905c-9.561,7.444-17.092,17.267-20.088,28.678
		c-5.141,19.588,7.824,36.089,25.138,46.387c15.436,9.182,33.797,13.901,51.166,18.449c23.255,6.091,46.687,11.41,69.984,17.333
		c13.575,3.451,27.091,7.282,40.203,12.16c11.215,4.173,21.108,9.244,30.966,15.752c9.904,6.541,20.226,13.206,32.354,15.161
		c11.88,1.918,23.155-1.663,31.786-8.827C392.378,258.913,393.444,236.611,390.129,219.885z M121.641,179.623
		c0.307,0.043,0.615,0.077,0.923,0.104c0.212,0.458,0.45,0.908,0.722,1.348C122.719,180.597,122.169,180.112,121.641,179.623z"/>
	<path fill="#DDDDDD" d="M306.371,324.901c-1.84-1.124-3.818-2.056-5.878-2.841c-0.038-0.03-0.072-0.063-0.11-0.095
		c-1.761-1.387-4.114-2.537-6.571-3.181c-2.069-1.204-4.148-2.266-6.018-3.11c-9.185-4.15-19.622-6.827-28.033-8.961
		c-19.257-4.886-39.321-6.988-58.965-9.558c-22.337-2.921-47.312-4.67-69.793-10.863c-5.939-2.833-12.815-4.928-18.459-7.478
		c-5.715-2.581-10.737-5.386-15.253-8.693c-2.45-2.531-5.077-4.917-8.045-7.003c-0.378-0.392-0.754-0.788-1.125-1.192
		c-0.333-0.362-0.872-0.484-1.348-0.429c-0.859-0.52-1.742-1.017-2.661-1.484c-1.82-0.92-4.344,0.749-3.289,2.287
		c6.736,9.825,15.363,19.651,24.708,28.194c0.583,0.532,1.241,0.901,1.923,1.131c0.268,0.225,0.538,0.447,0.809,0.67
		c0.116,0.101,0.232,0.201,0.341,0.3c0.099,0.086,0.204,0.169,0.303,0.256c3.851,4.24,8.715,8.021,13.656,11.306
		c1.799,1.196,3.674,2.334,5.608,3.4c0.333,0.284,0.693,0.563,1.098,0.838c16.008,10.813,35.27,19.865,55.295,24.208
		c6.226,2.399,12.58,4.556,19.064,6.48c19.06,5.656,38.649,9.216,58.431,11.346c9.456,1.019,19.174,1.846,28.525,1.214
		c9.337-0.633,15.994-3.073,20.771-9.218C315.525,337.063,313.167,329.057,306.371,324.901z"/>
	<path fill="#383838" d="M254.664,275.131c-13.007-7.029-27.145-12.303-40.614-18.403c-14.269-6.462-28.593-12.813-42.602-19.833
		c-25.723-12.889-50.957-27.302-75.775-41.925c-0.813-0.849-1.614-1.709-2.396-2.586c-1.494-4.581-3.35-9.048-4.846-13.627
		c-1.742-5.333-2.977-11.18-2.508-16.818c0.555-6.672,1.995-14.121-0.295-20.628c-0.261-0.743-1.087-0.991-1.75-0.617
		c-2.848,1.607-5.012,4.301-6.682,7.341c-4.663,2.69-8.79,6.604-11.81,11.172c-12.497,9.68-22.573,25.786-25.653,39.754
		c-6.593,29.897,1.495,50.428,8.974,59.977c1.054,1.934,2.367,4.087,3.91,6.096c0.052,0.109,0.104,0.226,0.157,0.333
		c0.496,1.069,1,2.136,1.55,3.181l-1.127,0.421c10.43,14.834,22.576,28.401,36.34,40.11c17.121,14.566,35.712,26.996,55.762,37.002
		c9.634,4.809,19.415,9.44,29.528,13.14c9.967,3.646,22.485,7.85,33.147,5.888c1.528-0.281,2.186-1.899,1.092-3.095
		c-6.808-7.443-17.245-10.354-26.012-14.831c-9.575-4.89-19.207-9.705-28.493-15.14c-17.882-10.465-35.369-22.172-51.36-35.407
		c-5.44-4.503-10.684-9.269-15.76-14.217c-2.552-3.447-5.332-6.774-8.018-10.159c-0.178-0.226-0.355-0.45-0.533-0.674
		c-0.911-4.897-4.184-9.441-6.863-13.529c-1.874-2.859-3.627-5.829-5.289-8.845c2.874,0.21,5.778,0.327,8.485,0.787
		c5.876,0.998,12.598,3.496,18.205,0.661c6.524,4.2,14.977,6.607,22.168,8.81c16.045,4.911,33.825,8.508,50.652,7.612
		c3.209,0.699,6.448,1.292,9.704,1.796c6.518,1.008,13.085,1.681,19.648,2.313c1.86,0.179,3.781,0.366,5.718,0.506
		c7.988,1.164,16.13,2.058,24.167,1.832c0.165,0.056,0.329,0.114,0.494,0.169c4.247,1.407,8.624,3.314,13.161,2.739
		c1.01-0.127,1.766-1.321,1.249-2.195c4.492,1.241,9.004,2.285,13.515,3.003C255.154,277.444,255.816,275.754,254.664,275.131z
		 M147.07,246.686c-0.192-0.183-0.385-0.364-0.578-0.55c0.79,0.371,1.588,0.723,2.381,1.084
		C148.272,247.045,147.67,246.868,147.07,246.686z"/>
	<path fill="#383838" d="M418.317,257.646c-0.124-0.683-0.264-1.365-0.401-2.048c0.012-0.238-0.037-0.423-0.113-0.579
		c-3.207-15.566-9.676-30.917-16.563-45.102c-3.535-7.279-7.931-14.241-11.832-21.363c-1.591-2.904-3.067-5.881-5.228-8.404
		c-2.362-2.759-3.658-6.183-6.11-8.846c-0.357-0.388-0.975,0.076-0.824,0.534c0.913,2.777,2.688,5.042,3.845,7.713
		c1.316,3.041,2.369,5.99,3.898,8.964c3.647,7.093,6.369,14.434,9.346,21.762c4.395,10.817,8.521,21.977,11.376,33.374
		c-0.417,0.248-0.725,0.682-0.787,1.34c-0.31,3.232,0.011,6.296,0.332,9.52c0.194,1.943-0.7,1.567-1.531,3.123
		c1.064-1.993-1.536,1.947-1.931,2.531c-2.706,4.012-4.489,9.236-7.436,12.385c-3.108,3.322-6.476,7.826-9.453,10.271
		c-4.536,3.724-9.663,6.693-14.935,9.236c-9.883,4.767-21.115,7.41-32.061,8.729c-5.867,0.708-11.641,0.523-17.524,0.406
		c-4.547-0.09-10.904-1.646-15.162,0.263c-1.256-0.838-2.571-1.479-3.964-1.776c-1.131-0.241-2.336,0.704-2.218,1.902
		c0.622,6.261,8.379,11.139,12.847,14.793c0.362,0.296,0.983,0.869,1.761,1.559c1.921,1.855,3.969,3.46,6.125,4.837
		c1.177,2.161,2.154,4.511,2.907,7.038c0.677,2.27,1.277,4.655,1.321,7.091c0.026,1.416-0.563,3.813-0.508,6.162
		c-0.505,2.404-1,4.814-1.79,7.12c-0.507,1.482-1.187,2.896-1.917,4.29c-0.738,0.686-1.486,1.36-2.233,2.034
		c-7.268,2.619-14.786,4.701-22.351,6.03c-10.044,1.766-20.38,2.764-30.58,2.911c-10.021,0.145-20.951,0.415-30.627,3.229
		c-1.808,0.526-2.551,3.278-0.96,4.486c4.678,3.552,10.242,6.098,16.054,7.823c6.587,8.075,19.369,8.284,29.155,7.079
		c13.936-1.715,28.013-4.571,41.653-7.873c13.516-3.272,25.917-9.147,37.919-16.074c9.829-5.673,21.096-12.296,28.33-21.393
		c1.202-0.788,2.277-1.608,3.139-2.342c2.349-2,5.382-4.736,7.522-7.839c3.323-2.192,6.321-5.115,8.908-8.104
		c5.063-5.845,8.497-12.544,11.005-19.81C421.883,289.674,421.103,272.984,418.317,257.646z"/>
</g>
</svg>
