<?xml version="1.0" encoding="utf-8"?>
<!-- Generator: Adobe Illustrator 16.0.0, SVG Export Plug-In . SVG Version: 6.00 Build 0)  -->
<!DOCTYPE svg PUBLIC "-//W3C//DTD SVG 1.1//EN" "http://www.w3.org/Graphics/SVG/1.1/DTD/svg11.dtd">
<svg version="1.1" xmlns="http://www.w3.org/2000/svg" xmlns:xlink="http://www.w3.org/1999/xlink" x="0px" y="0px"
	 width="453.536px" height="465.656px" viewBox="0 0 453.536 465.656" enable-background="new 0 0 453.536 465.656"
	 xml:space="preserve">
<g id="Livello_2">
</g>
<g id="Livello_1">
	<path fill="#939393" d="M392.156,153.028c0.584-6.489-0.646-12.896-2.973-19.441c-1.295-3.644-4.399-7.256-7.334-10.533
		c-0.906-1.012-2.006-1.941-3.209-2.79c-4.526-4.2-9.282-8.324-14.336-12.241c-0.557-0.431-1.13-0.845-1.699-1.261
		c-7.187-14.114-17.817-27.899-29.674-40.702c-14.148-15.28-30.989-27.84-52.102-39.042c-11.511-6.106-24.018-11.284-37.082-15.442
		c-11.286-3.593-21.846-6.231-32.671-5.619c-2.449-0.552-5.091-0.656-7.543-0.729c-6.366-0.19-12.782,0.476-18.582,1.743
		c-13.816,3.017-26.568,7.65-38.371,12.99c-24.207,10.953-46.06,23.256-63.084,39.27C63.544,78,47.304,103.737,50.308,128.799
		c2.087,17.413,17.99,32.29,40.171,42.3c19.876,8.969,42.934,14.187,66.374,17.346c2.145,0.94,4.358,1.861,6.699,2.758
		c10.895,4.176,22.461,6.934,33.913,10.042c15.308,4.155,30.077,9.594,45.688,13.708c15.861,4.178,32.089,6.529,48.233,5.598
		c5.505-0.318,10.849-1.466,15.39-3.259c7.475-0.666,14.44-2.351,21.294-4.271c18.031-5.049,33.047-13.675,44.526-23.98
		C384.02,178.785,390.947,166.465,392.156,153.028z M170.467,169.884c1.271-0.082,2.534-0.172,3.792-0.278
		c0.086,0.238,0.175,0.478,0.274,0.713C173.161,170.178,171.807,170.032,170.467,169.884z"/>
	<path fill="#DDDDDD" d="M366.333,174.696c-5.619,2.107-10.642,4.856-16.69,6.436c-3.232-0.36-5.978,0.563-9.012,1.172
		c-0.646,0.129-1.273,0.274-1.909,0.413c-5.706,0.458-11.534,0.671-17.178,1.31c-7.949,0.899-16.44,1.03-24.708,0.496
		c-4.884-0.316-11.16-1.704-16.415-1.473c-17.835-5.563-36.187-10.401-53.671-16.457c-14.908-5.163-27.597-12.732-40.851-19.472
		c-1.216-1.414-2.845-2.738-4.811-3.88c-14.79-8.598-28.755-16.534-40.837-27.006c-2.995-2.597-3.089-2.73-5.721-5.873
		c-1.021-1.219-1.911-2.476-2.776-3.737c-0.314-0.47-0.602-0.944-0.891-1.417c-0.014-0.028-0.033-0.065-0.05-0.102
		c2.968,2.952,6.552,5.784,10.731,8.425c4.214,2.663,8.672,5.119,13.308,7.393c10.583,6.992,21.719,13.552,33.868,19.228
		c26.523,12.39,55.28,22.991,85.454,29.354c28.091,5.923,63.707,8.044,87.451-1.939c4.493-1.892,7.507-4.464,9.308-7.428
		c8.348-4.354,13.803-10.834,13.375-18.671c-0.696-12.734-14.198-22.864-26.514-32.477c-40.748-31.799-55.146-84.163-124.202-95.706
		c-23.919-3.998-50.306-0.01-70.348,6.745c-10.04,3.383-17.554,7.975-25.763,12.846c-1.789,1.062-3.501,2.169-5.159,3.306
		c-1.436,0.565-2.879,1.123-4.288,1.722c-24.64,10.48-39.597,27.452-44.635,47.221c-4.171,16.359-0.338,33.543,18.635,47.292
		c13.09,9.483,30.007,16.058,47.116,21.792c4.603,2.047,9.943,3.655,14.077,5.24c9.464,3.628,18.893,7.397,28.409,11.022
		c18.526,7.054,37.278,13.913,56.799,19.294c18.934,5.22,37.346,7.796,56.846,7.439c0.684-0.013,1.366-0.048,2.051-0.073
		c2.784,0.448,5.56,0.903,8.313,1.37c1.728,0.295,2.365-1.404,0.942-2.058c-0.032-0.014-0.063-0.026-0.095-0.041
		c5.738-0.7,11.306-1.814,16.54-3.234c5.687-1.542,15.047-3.986,18.393-8.018c5.79-2.855,12.362-5.077,16.737-9.019
		C368.901,175.466,367.484,174.265,366.333,174.696z"/>
	<path fill="#383838" d="M286.051,206.235c-11.104-1.676-21.849-2.131-32.81-4.988c-10.961-2.856-21.119-6.897-31.242-10.951
		c-4.762-1.905-8.996-4.13-13.409-6.338c-4.861-2.432-10.814-4.29-16.117-6.258c-5.029-1.866-10.664-3.214-15.887-4.765
		c-5.77-1.713-11.215-3.687-17.094-5.239c-22.691-5.994-43.09-13.714-60.074-25.493c-6.984-4.844-13.8-9.74-19.677-15.069
		c-7.136-6.468-8.136-12.786-10.523-19.736c-0.379-1.101-2.873-1.581-3.288-0.451c-1.991,5.426,1.152,12.145,3.601,17.854
		c2.836,6.612,7.606,13,14.012,18.941c14.49,13.438,38.11,22.617,60.967,28.998c24.715,6.9,52.826,9.392,75.826,19.448
		c19.048,8.328,43.83,20.65,66.22,17.749C289.233,209.592,289.365,206.736,286.051,206.235z"/>
	<path fill="#939393" d="M412.571,235.461c-16.484-15.171-37.679-15.573-58.082-8.812c-10.909,3.615-20.508,9.27-28.91,16.385
		c-0.451,0.217-0.903,0.468-1.354,0.774c-14.682,9.961-27.192,22.739-41.587,33.127c-0.503,0.361-0.928,0.788-1.294,1.257
		c-10.241,8.231-17.571,20.499-22.109,32.808c-7.413,20.114-8.97,42.251-3.084,62.893c5.895,20.668,17.824,41.387,37.184,52.04
		c24.018,13.217,51.827,6.773,72.91-9.109c11.829-8.91,21.421-20.689,31.006-31.864c7.896-9.207,16.03-18.081,22.614-28.313
		c12.642-19.646,17.811-41.743,15.743-64.956C433.849,271.938,427.641,249.329,412.571,235.461z"/>
	<path fill="#DDDDDD" d="M388.962,239.401c-25.757-7.636-51.398,10.018-70.189,25.558c-9.199,7.608-17.962,15.732-27.112,23.403
		c-3.974,3.33-7.359,6.779-10.198,10.507c-0.951,0.275-1.905,0.71-2.841,1.352c-21.778,14.902-24.737,43.666-15.99,66.854
		c3.896,10.324,10.955,18.683,20.81,23.61c8.857,4.43,19.6,3.269,28.672,0.319c10.436-3.392,19.109-10.013,27.833-16.448
		c9.978-7.361,20.012-14.643,29.61-22.5c18.604-15.233,35.866-33.063,41.469-57.112C415.797,274.46,412.481,246.374,388.962,239.401
		z"/>
	<path fill="#383838" d="M415.153,311.248c-3.419,5.125-4.173,11.704-7.55,16.964c-3.34,5.205-7.928,9.53-12.278,13.877
		c-4.79,4.789-9.701,9.356-14.243,14.397c-4.265,4.737-7.836,10.015-12.278,14.622c-9.402,9.749-20.326,17.692-32.315,23.94
		c-5.694,2.967-11.804,4.917-17.675,7.469c-2.289,0.996-4.861,2.149-7.222,2.85c-3.092,0.92-6.828,0.613-10.028,0.974
		c-2.506,0.283-2.797,4.004-0.478,4.812c2.756,0.959,5.525,1.701,8.363,2.384c3.214,0.771,5.673,2.39,9.056,2.816
		c8.292,1.043,14.763,0.321,22.629-2.896c14.488-5.927,27.539-15.698,38.601-26.659c10.679-10.584,19.292-23.137,29.033-34.57
		c8.869-10.409,18.479-26.189,13.134-40.35C420.853,309.101,416.727,308.892,415.153,311.248z"/>
	<path fill="#939393" d="M127.752,302.751c-12.051-18.59-33.592-42.067-58.238-39.365c-1.55,0.17-3.067,0.452-4.554,0.815
		c-0.884,0.007-1.752,0.033-2.58,0.065c-3.658,0.14-7.164,1.047-10.45,2.501c-2.174-0.15-4.488,0.642-6.569,2.786
		c-32.208,33.187-21.003,85.508,15.137,110.733c3.835,2.677,8.498,5.136,13.63,7.202c0.816,0.563,1.635,1.123,2.474,1.657
		c14.321,9.106,35.016,12.282,49.609,1.925c2.562-1.817,4.746-3.822,6.603-5.975c3.612-2.95,6.628-6.738,8.799-11.514
		C152.071,350.582,140.495,322.408,127.752,302.751z M119.926,367.773c-0.111,0.368-0.247,0.729-0.38,1.091
		c0.125-0.414-0.467,0.905-0.779,1.538c-0.113,0.078-0.217,0.147-0.314,0.211c0.355-0.615,0.681-1.253,0.967-1.917
		c0.325-0.756,0.61-1.509,0.874-2.262C120.173,366.882,120.06,367.33,119.926,367.773z"/>
	<path fill="#DDDDDD" d="M120.755,333.004c-0.586-12.705-6.654-25.746-15.257-36.31c-1.803-2.385-3.657-4.664-5.478-6.813
		c-7.674-9.058-17.646-18.126-29.864-19.613c-0.628-0.076-1.248-0.109-1.863-0.12c-2.319-0.884-4.682-1.069-6.812-0.609
		c-3.816-2.544-9.336-2.426-12.569,2.775c-6.293,10.126-8.546,22.183-9.467,33.899c-0.861,10.964,0.688,22.368,5.966,32.102
		c7.674,14.153,23.388,25.854,39.257,28.767c7.712,1.415,16.062,0.954,22.781-3.488c5.864-3.877,9.107-9.539,10.8-15.898
		C120.163,343.018,120.978,337.826,120.755,333.004z"/>
	<path fill="#383838" d="M138.426,354.437c-1.084-5.673-8.477-5.9-11.389-1.125c-3.023,4.96-6.542,9.563-11.22,13.762
		c-4.983,4.473-10.287,8.735-16.67,12.096c-2.747,1.446-8.148,0.84-11.139,0.301c-4.015-0.727-6.838-2.914-10.434-4.257
		c-2.638-0.984-5.192,0.979-3.92,2.958c2.899,4.512,10.547,6.946,16.868,7.439c6.806,0.53,15.504-0.126,21.844-2.001
		C127.443,379.148,140.883,367.295,138.426,354.437z"/>
</g>
</svg>
