<?xml version="1.0" encoding="UTF-8" standalone="no"?>
<!-- Generator: Adobe Illustrator 16.0.0, SVG Export Plug-In . SVG Version: 6.00 Build 0)  -->

<svg
   xmlns:dc="http://purl.org/dc/elements/1.1/"
   xmlns:cc="http://creativecommons.org/ns#"
   xmlns:rdf="http://www.w3.org/1999/02/22-rdf-syntax-ns#"
   xmlns:svg="http://www.w3.org/2000/svg"
   xmlns="http://www.w3.org/2000/svg"
   xmlns:sodipodi="http://sodipodi.sourceforge.net/DTD/sodipodi-0.dtd"
   xmlns:inkscape="http://www.inkscape.org/namespaces/inkscape"
   version="1.1"
   id="Livello_2"
   x="0px"
   y="0px"
   width="240"
   height="240"
   viewBox="0 0 240 239.99999"
   enable-background="new 0 0 841.89 595.28"
   xml:space="preserve"
   inkscape:version="0.48.5 r10040"
   sodipodi:docname="palla.svg"><metadata
     id="metadata3448"><rdf:RDF><cc:Work
         rdf:about=""><dc:format>image/svg+xml</dc:format><dc:type
           rdf:resource="http://purl.org/dc/dcmitype/StillImage" /></cc:Work></rdf:RDF></metadata><defs
     id="defs3446" /><sodipodi:namedview
     pagecolor="#ffffff"
     bordercolor="#666666"
     borderopacity="1"
     objecttolerance="10"
     gridtolerance="10"
     guidetolerance="10"
     inkscape:pageopacity="0"
     inkscape:pageshadow="2"
     inkscape:window-width="1366"
     inkscape:window-height="755"
     id="namedview3444"
     showgrid="false"
     inkscape:zoom="0.86259298"
     inkscape:cx="420.94501"
     inkscape:cy="297.64001"
     inkscape:window-x="0"
     inkscape:window-y="12"
     inkscape:window-maximized="1"
     inkscape:current-layer="Livello_2" /><path
     d="M 192.98253,29.809777 C 162.39871,5.0065674 122.25998,-10.043933 86.332558,7.8115874 19.760108,17.306897 -21.326312,112.26739 11.574418,179.6861 c 33.17615,68.00418 117.182192,73.83788 172.633072,40.66495 28.09119,-16.7869 48.7884,-47.68332 54.37979,-82.5631 7.17581,-44.784403 -13.74056,-82.149573 -45.60475,-107.978173 z"
     id="path3440"
     inkscape:connector-curvature="0"
     style="fill:#008187" /><path
     d="m 220.14577,93.039407 c -7.23899,-38.89163 -51.76573,-75.04575 -86.57666,-77.91091 -29.35675,-2.41892 -63.110402,6.44027 -87.679332,24.57219 -10.28444,7.58169 -16.74652,17.11498 -19.68634,27.33607 -10.24891,21.72075 -6.35843,51.616053 8.9014,72.221743 0.74235,1.0064 1.53703,1.93894 2.34356,2.86727 3.29817,5.30834 7.63979,10.19999 13.15121,14.47135 13.21242,10.24853 29.74768,15.11486 46.19804,16.99789 15.650752,3.51814 32.381482,2.87781 47.940422,-1.81024 3.465,-0.1287 6.88064,-0.48632 10.2183,-1.0834 16.83536,-2.46745 32.42589,-9.45523 43.58398,-23.87067 15.9706,-10.96797 26.43767,-27.77597 21.60542,-53.791293 z"
     id="path3442"
     inkscape:connector-curvature="0"
     style="fill:#85e8ff" /></svg>